<?xml version="1.0" encoding="UTF-8" standalone="no"?>
<!DOCTYPE svg  PUBLIC '-//W3C//DTD SVG 1.1//EN'  'http://www.w3.org/Graphics/SVG/1.1/DTD/svg11.dtd'>
<svg id="Layer_1" xmlns="http://www.w3.org/2000/svg" xml:space="preserve" height="800px" viewBox="0 0 800 800" width="800px" version="1.1" y="0px" x="0px" xmlns:xlink="http://www.w3.org/1999/xlink" enable-background="new 0 0 800 800">
	<path d="m110.94 242.89c0-5.5 3.897-7.75 8.66-5l54.602 31.524c4.763 2.75 8.66 9.5 8.66 15l0.001 231.76c0 5.5 3.897 12.25 8.66 15l200.81 115.94c4.763 2.75 12.558 2.75 17.32 0l200.81-115.94c4.763-2.75 8.66-9.5 8.66-15v-231.86c0-5.5 3.897-12.25 8.66-15l54.602-31.524c4.763-2.75 8.66-0.5 8.66 5v314.92c0 5.5-3.897 12.25-8.66 15l-272.73 157.45c-4.763 2.75-12.557 2.75-17.32 0l-272.72-157.46c-4.763-2.75-8.66-9.5-8.66-15l-0.01-314.81z" fill="#524FA1"/>
	<path d="m226.9 304.81c0-2.75 1.949-3.875 4.33-2.5l34.512 19.923c2.381 1.375 4.33 4.75 4.33 7.5v141.12c0 2.75 1.949 6.125 4.33 7.5l122.27 70.592c2.381 1.375 6.278 1.375 8.66 0l122.27-70.592c2.382-1.375 4.33-4.75 4.33-7.5v-141.18c0-2.75 1.948-6.125 4.33-7.5l34.509-19.924c2.382-1.375 4.33-0.25 4.33 2.5l0.003 191.04c0 2.75-1.948 6.125-4.33 7.5l-165.44 95.516c-2.382 1.375-6.279 1.375-8.66 0l-165.44-95.516c-2.381-1.375-4.33-4.75-4.33-7.5v-190.98z" fill="#CBDB2A"/>
	<path d="m159.32 204.96c-4.762 2.751-4.762 7.253 0.001 10.003l54.507 31.47c4.763 2.75 12.557 2.75 17.32 0l161.18-93.058c4.763-2.75 12.557-2.75 17.321 0l161.09 93.004c4.763 2.75 12.558 2.75 17.32 0l54.602-31.522c4.763-2.75 4.763-7.25 0-10l-233.01-134.53c-4.764-2.75-12.557-2.749-17.319 0.003l-233.01 134.64z" fill="#F15A22"/>
</svg>
